<?xml version="1.0" standalone="no"?>
<!DOCTYPE svg PUBLIC "-//W3C//DTD SVG 20010904//EN"
 "http://www.w3.org/TR/2001/REC-SVG-20010904/DTD/svg10.dtd">
<svg version="1.0" xmlns="http://www.w3.org/2000/svg"
 width="894.000000pt" height="894.000000pt" viewBox="0 0 894.000000 894.000000"
 preserveAspectRatio="xMidYMid meet">
<metadata>
Created by potrace 1.14, written by Peter Selinger 2001-2017
</metadata>
<g transform="translate(0.000000,894.000000) scale(0.100000,-0.100000)"
fill="#000000" stroke="none">
<path d="M4557 8570 c-98 -28 -147 -52 -212 -103 -105 -83 -187 -215 -202
-327 -3 -19 -7 -37 -9 -40 -3 -2 -51 -5 -107 -5 -254 -4 -504 -64 -708 -171
l-70 -37 -22 20 c-61 55 -192 119 -303 149 -88 23 -256 33 -319 20 -73 -16
-256 -125 -321 -189 -129 -131 -182 -274 -171 -464 6 -114 12 -143 37 -199
l18 -41 -41 -44 c-51 -55 -130 -174 -174 -261 -31 -61 -200 -494 -218 -558 -2
-8 -16 -52 -29 -98 -14 -46 -28 -102 -31 -125 -4 -23 -10 -60 -15 -81 -5 -22
-7 -44 -4 -48 8 -13 -20 -9 -41 6 -30 20 -240 103 -336 131 -127 38 -180 56
-224 75 -22 10 -69 30 -105 45 -89 36 -121 51 -220 100 -192 96 -283 159 -420
292 -56 54 -70 63 -102 63 -37 0 -38 -1 -52 -52 -26 -92 -38 -180 -38 -283 -1
-92 8 -227 17 -273 2 -10 6 -43 10 -73 4 -30 9 -57 11 -61 3 -4 7 -20 9 -35 3
-16 6 -35 8 -43 2 -8 7 -28 11 -45 4 -16 10 -37 13 -45 4 -8 5 -19 4 -23 0 -4
4 -17 10 -28 6 -11 12 -28 14 -37 13 -57 83 -229 136 -334 116 -232 249 -414
439 -605 174 -175 331 -264 493 -279 34 -3 65 -8 68 -10 7 -4 35 -109 29 -109
-2 0 15 -36 39 -81 63 -121 185 -239 318 -308 39 -20 153 -47 207 -50 l40 -1
84 -165 c196 -383 431 -661 832 -985 52 -42 102 -82 111 -89 16 -13 82 -60
239 -169 60 -41 96 -72 96 -84 2 -47 18 -114 50 -207 32 -93 51 -161 59 -211
8 -55 60 -237 94 -334 l38 -110 -24 -23 c-52 -49 -86 -154 -65 -208 6 -17 5
-35 -5 -59 -47 -111 -35 -242 30 -324 27 -35 99 -80 151 -95 91 -26 200 12
242 84 28 48 52 136 48 175 -6 47 7 119 22 119 7 0 33 -18 56 -39 68 -62 142
-108 169 -104 34 5 123 48 194 92 34 21 102 59 152 84 l90 46 23 -21 c16 -15
20 -26 14 -47 -3 -14 -10 -43 -14 -63 -4 -21 -13 -45 -20 -53 -22 -27 -15
-120 14 -179 31 -64 43 -75 122 -115 102 -52 196 -47 282 13 69 48 112 161 90
240 -5 18 -2 41 7 63 18 42 19 96 4 125 -8 16 -8 31 2 62 7 23 14 42 15 44 1
2 46 -29 101 -68 55 -38 105 -70 111 -70 6 0 12 -4 14 -9 5 -14 117 -82 150
-92 17 -5 40 -4 56 2 29 11 255 152 287 180 63 53 96 15 99 -119 3 -97 22
-154 77 -221 38 -49 94 -72 168 -72 99 1 145 17 200 71 35 36 86 138 97 195 4
21 15 58 25 80 31 70 24 141 -23 223 -31 54 -136 153 -191 181 -26 13 -47 29
-48 35 0 6 -2 20 -3 31 -2 11 -6 43 -9 70 -4 28 -10 63 -15 80 -7 25 0 47 47
141 68 134 67 134 127 287 84 218 87 223 146 253 59 30 127 74 174 113 17 14
48 39 70 56 77 59 193 182 306 325 109 137 113 143 120 160 3 9 35 59 71 111
101 148 187 300 295 520 167 340 219 475 202 524 -6 17 3 23 60 46 166 64 296
199 399 413 22 44 60 124 85 176 24 52 70 138 101 190 31 52 58 106 61 120 3
14 28 68 55 121 147 289 193 618 139 984 -20 137 -20 138 -69 300 -16 55 -33
116 -36 135 -23 140 -71 233 -121 238 -19 2 -35 -3 -46 -15 -14 -17 -59 -125
-109 -263 -25 -70 -82 -185 -105 -211 -8 -8 -14 -19 -14 -22 0 -12 -42 -58
-134 -148 -60 -59 -119 -106 -185 -145 -117 -69 -264 -167 -350 -232 l-65 -49
-47 117 c-50 124 -133 294 -174 354 -14 21 -25 39 -25 41 0 4 -88 133 -105
152 -5 7 -15 18 -20 25 -6 7 -32 40 -58 72 -27 33 -44 62 -39 65 5 3 22 38 37
76 35 87 44 229 19 313 -35 119 -124 227 -229 277 -51 25 -72 29 -145 29 -69
1 -94 -4 -130 -22 l-44 -22 -46 44 c-86 84 -116 107 -225 181 -130 86 -279
160 -425 209 -102 34 -275 80 -335 90 -43 6 -102 14 -160 21 -27 3 -50 7 -51
8 -1 1 -4 25 -7 52 -6 58 -29 129 -64 200 -71 141 -217 258 -366 294 -129 32
-211 32 -320 1z"/>
</g>
</svg>
